# xmcd CD database file
#
# Track frame offsets:
#	150
#	17905
#	34595
#	58295
#	78497
#	96455
#	114729
#	131305
#	152540
#	165835
#	197400
#	214637
#
# Disc length: 3146 seconds
#
# Revision: 3
# Processed by: cddbd v1.5.2PL0 Copyright (c) Steve Scherf et al.
# Submitted via: CDex 1.51
#
DISCID=950c480c
DTITLE=Carey Bell - Deep Down
DYEAR=1900
DGENRE=Blues
TTITLE0=I Got To Go
TTITLE1=Let Me Stir In Your Pot
TTITLE2=When I Get Drunk
TTITLE3=Low Down Dirty Shame
TTITLE4=Borrow Your Love
TTITLE5=Lonesome Stranger
TTITLE6=After You
TTITLE7=I Got A Rich Man's Woman
TTITLE8=Jawbreaker
TTITLE9=Must I Holler?
TTITLE10=Tired Of Giving You My Love
TTITLE11=Easy
EXTD=
EXTT0=
EXTT1=
EXTT2=
EXTT3=
EXTT4=
EXTT5=
EXTT6=
EXTT7=
EXTT8=
EXTT9=
EXTT10=
EXTT11=
PLAYORDER=
